<svg width="223" height="223" viewBox="0 0 223 223" fill="none" xmlns="http://www.w3.org/2000/svg">
<rect width="223" height="223" fill="url(#paint0_linear)"/>
<path d="M63.1562 103.875C66.4688 103.25 68.8125 101.984 70.1875 100.078H64.4219C61.6719 100.078 59.3438 99.1094 57.4375 97.1719C55.5625 95.2344 54.625 92.9062 54.625 90.1875C54.6875 88.375 55.1406 86.75 55.9844 85.3125C56.8281 83.8438 57.9844 82.6719 59.4531 81.7969C60.9531 80.9219 62.5781 80.4844 64.3281 80.4844H82.9375C89.7812 80.4844 93.2031 84.25 93.2031 91.7812C93.2031 93.9688 92.9844 96.2188 92.5469 98.5312C92.1094 101.438 91.0312 104.438 89.3125 107.531C87.4062 110.938 84.9688 113.875 82 116.344C79.0625 118.781 75.6719 120.641 71.8281 121.922C68.0156 123.203 63.8125 123.844 59.2188 123.844C56.5938 123.844 53.6875 123.594 50.5 123.094C46.125 122.344 42.1562 121.047 38.5938 119.203C35.0625 117.328 31.9688 114.922 29.3125 111.984C26.6562 109.047 24.5312 105.703 22.9375 101.953C21.0938 97.5156 20.1719 93.0156 20.1719 88.4531C20.1719 82.4531 21.6875 76.7812 24.7188 71.4375C27.7812 66.0625 32.0938 61.625 37.6562 58.125C43.7188 54.3438 50.625 52.4531 58.375 52.4531C59.375 52.4531 60.8125 52.5156 62.6875 52.6406C66.0312 52.9219 69.2969 53.5625 72.4844 54.5625C75.5469 55.5625 78.4219 56.875 81.1094 58.5C86.5781 62.0938 89.3125 65.9375 89.3125 70.0312C89.3125 72.4688 88.1875 74.6719 85.9375 76.6406C84.3438 78.0469 82.4219 78.75 80.1719 78.75C78.5156 78.75 76.75 78.3594 74.875 77.5781H74.7812L70.75 75.4688C69.875 74.9688 69.2031 74.625 68.7344 74.4375C64.8281 72.625 61.1875 71.7188 57.8125 71.7188C55.0938 71.7188 52.6562 72.2656 50.5 73.3594C48.3438 74.4219 46.5469 76 45.1094 78.0938C43.6719 80.1875 42.7188 82.6094 42.25 85.3594C42.0625 86.2344 41.9688 87.0938 41.9688 87.9375C41.9688 89.0312 42.0625 90.0938 42.25 91.125C42.8125 93.9062 43.8125 96.2969 45.25 98.2969C46.6875 100.266 48.5 101.797 50.6875 102.891C52.9062 103.953 55.4062 104.484 58.1875 104.484C59.875 104.484 61.5312 104.281 63.1562 103.875ZM140.031 103.875C143.344 103.25 145.688 101.984 147.062 100.078H141.297C138.547 100.078 136.219 99.1094 134.312 97.1719C132.438 95.2344 131.5 92.9062 131.5 90.1875C131.562 88.375 132.016 86.75 132.859 85.3125C133.703 83.8438 134.859 82.6719 136.328 81.7969C137.828 80.9219 139.453 80.4844 141.203 80.4844H159.812C166.656 80.4844 170.078 84.25 170.078 91.7812C170.078 93.9688 169.859 96.2188 169.422 98.5312C168.984 101.438 167.906 104.438 166.188 107.531C164.281 110.938 161.844 113.875 158.875 116.344C155.938 118.781 152.547 120.641 148.703 121.922C144.891 123.203 140.688 123.844 136.094 123.844C133.469 123.844 130.562 123.594 127.375 123.094C123 122.344 119.031 121.047 115.469 119.203C111.938 117.328 108.844 114.922 106.188 111.984C103.531 109.047 101.406 105.703 99.8125 101.953C97.9688 97.5156 97.0469 93.0156 97.0469 88.4531C97.0469 82.4531 98.5625 76.7812 101.594 71.4375C104.656 66.0625 108.969 61.625 114.531 58.125C120.594 54.3438 127.5 52.4531 135.25 52.4531C136.25 52.4531 137.688 52.5156 139.562 52.6406C142.906 52.9219 146.172 53.5625 149.359 54.5625C152.422 55.5625 155.297 56.875 157.984 58.5C163.453 62.0938 166.188 65.9375 166.188 70.0312C166.188 72.4688 165.062 74.6719 162.812 76.6406C161.219 78.0469 159.297 78.75 157.047 78.75C155.391 78.75 153.625 78.3594 151.75 77.5781H151.656L147.625 75.4688C146.75 74.9688 146.078 74.625 145.609 74.4375C141.703 72.625 138.062 71.7188 134.688 71.7188C131.969 71.7188 129.531 72.2656 127.375 73.3594C125.219 74.4219 123.422 76 121.984 78.0938C120.547 80.1875 119.594 82.6094 119.125 85.3594C118.938 86.2344 118.844 87.0938 118.844 87.9375C118.844 89.0312 118.938 90.0938 119.125 91.125C119.688 93.9062 120.688 96.2969 122.125 98.2969C123.562 100.266 125.375 101.797 127.562 102.891C129.781 103.953 132.281 104.484 135.062 104.484C136.75 104.484 138.406 104.281 140.031 103.875ZM187.375 124.828C185.219 124.828 183.25 124.297 181.469 123.234C179.719 122.203 178.328 120.812 177.297 119.062C176.266 117.281 175.719 115.297 175.656 113.109C175.656 111.016 176.172 109.062 177.203 107.25C178.234 105.406 179.625 103.953 181.375 102.891C183.156 101.828 185.125 101.297 187.281 101.297C190.594 101.297 193.375 102.422 195.625 104.672C196.75 105.734 197.609 107 198.203 108.469C198.797 109.938 199.094 111.453 199.094 113.016C199.094 116.328 197.938 119.141 195.625 121.453C193.375 123.703 190.625 124.828 187.375 124.828ZM187.375 99.2812C185.375 99.2812 183.547 98.7969 181.891 97.8281C180.266 96.8281 178.969 95.5 178 93.8438C177.062 92.1875 176.594 90.3594 176.594 88.3594V62.5312C176.594 59.5312 177.656 56.9688 179.781 54.8438C181.844 52.7812 184.344 51.75 187.281 51.75C190.188 51.75 192.703 52.8125 194.828 54.9375C195.797 55.9062 196.547 57.0625 197.078 58.4062C197.641 59.75 197.922 61.1562 197.922 62.625V88.4531C197.922 90.4219 197.453 92.2344 196.516 93.8906C195.578 95.5156 194.312 96.8125 192.719 97.7812C191.125 98.75 189.344 99.25 187.375 99.2812Z" fill="#0CF2C9"/>
<path d="M36.6094 159.828C37.8516 159.594 38.7305 159.119 39.2461 158.404H37.084C36.0527 158.404 35.1797 158.041 34.4648 157.314C33.7617 156.588 33.4102 155.715 33.4102 154.695C33.4336 154.016 33.6035 153.406 33.9199 152.867C34.2363 152.316 34.6699 151.877 35.2207 151.549C35.7832 151.221 36.3926 151.057 37.0488 151.057H44.0273C46.5938 151.057 47.877 152.469 47.877 155.293C47.877 156.113 47.7949 156.957 47.6309 157.824C47.4668 158.914 47.0625 160.039 46.418 161.199C45.7031 162.477 44.7891 163.578 43.6758 164.504C42.5742 165.418 41.3027 166.115 39.8613 166.596C38.4316 167.076 36.8555 167.316 35.1328 167.316C34.1484 167.316 33.0586 167.223 31.8633 167.035C30.2227 166.754 28.7344 166.268 27.3984 165.576C26.0742 164.873 24.9141 163.971 23.918 162.869C22.9219 161.768 22.125 160.514 21.5273 159.107C20.8359 157.443 20.4902 155.756 20.4902 154.045C20.4902 151.795 21.0586 149.668 22.1953 147.664C23.3438 145.648 24.9609 143.984 27.0469 142.672C29.3203 141.254 31.9102 140.545 34.8164 140.545C35.1914 140.545 35.7305 140.568 36.4336 140.615C37.6875 140.721 38.9121 140.961 40.1074 141.336C41.2559 141.711 42.334 142.203 43.3418 142.812C45.3926 144.16 46.418 145.602 46.418 147.137C46.418 148.051 45.9961 148.877 45.1523 149.615C44.5547 150.143 43.834 150.406 42.9902 150.406C42.3691 150.406 41.707 150.26 41.0039 149.967H40.9688L39.457 149.176C39.1289 148.988 38.877 148.859 38.7012 148.789C37.2363 148.109 35.8711 147.77 34.6055 147.77C33.5859 147.77 32.6719 147.975 31.8633 148.385C31.0547 148.783 30.3809 149.375 29.8418 150.16C29.3027 150.945 28.9453 151.854 28.7695 152.885C28.6992 153.213 28.6641 153.535 28.6641 153.852C28.6641 154.262 28.6992 154.66 28.7695 155.047C28.9805 156.09 29.3555 156.986 29.8945 157.736C30.4336 158.475 31.1133 159.049 31.9336 159.459C32.7656 159.857 33.7031 160.057 34.7461 160.057C35.3789 160.057 36 159.98 36.6094 159.828ZM50.5488 167.035C49.7402 166.684 49.1133 166.197 48.668 165.576C48.2344 164.943 48.0176 164.217 48.0176 163.396C48.0176 162.787 48.1758 162.043 48.4922 161.164L54.6797 145.186C55.2539 143.721 56.0859 142.596 57.1758 141.811C58.2773 141.014 59.5312 140.615 60.9375 140.615C62.3555 140.615 63.6094 141.014 64.6992 141.811C65.8008 142.596 66.6387 143.721 67.2129 145.186L73.4004 161.164C73.7168 162.09 73.875 162.834 73.875 163.396C73.875 164.217 73.6523 164.943 73.207 165.576C72.7734 166.197 72.1523 166.684 71.3438 167.035C70.7812 167.281 70.207 167.404 69.6211 167.404C68.7891 167.404 68.0156 167.141 67.3008 166.613C66.5977 166.086 66.0762 165.354 65.7363 164.416L65.332 163.221H56.5957L56.1562 164.416C55.8398 165.33 55.3242 166.057 54.6094 166.596C53.9062 167.135 53.127 167.404 52.2715 167.404C51.6855 167.404 51.1113 167.281 50.5488 167.035ZM59.0039 155.979H62.8887L60.9375 149L59.0039 155.979ZM73.7168 163.766C73.7168 163.133 73.7285 162.676 73.752 162.395L76.7051 145.115C76.8574 144.107 77.2207 143.234 77.7949 142.496C78.3809 141.746 79.1074 141.213 79.9746 140.896C80.7246 140.615 81.457 140.475 82.1719 140.475C83.3906 140.475 84.4746 140.838 85.4238 141.564C86.3848 142.279 87.0293 143.234 87.3574 144.43L90.0117 153.535L92.6836 144.43C93.0469 143.223 93.7031 142.262 94.6523 141.547C95.6133 140.832 96.6973 140.475 97.9043 140.475C98.6074 140.475 99.3398 140.615 100.102 140.896C100.98 141.213 101.701 141.74 102.264 142.479C102.826 143.217 103.195 144.096 103.371 145.115L106.289 162.395C106.336 162.676 106.359 163.133 106.359 163.766C106.254 164.773 105.809 165.611 105.023 166.279C104.25 166.947 103.342 167.281 102.299 167.281C101.842 167.281 101.385 167.211 100.928 167.07C100.166 166.801 99.5391 166.367 99.0469 165.77C98.5547 165.172 98.2676 164.492 98.1855 163.73L96.9199 153.289L93.6152 164.223C93.3574 165.113 93.0469 165.787 92.6836 166.244C92.332 166.689 91.8867 167 91.3477 167.176C90.7734 167.375 90.293 167.475 89.9062 167.475C89.1094 167.475 88.4121 167.199 87.8145 166.648C87.2168 166.098 86.7656 165.289 86.4609 164.223L83.1035 153.289L81.873 163.73C81.791 164.492 81.5039 165.172 81.0117 165.77C80.5195 166.367 79.8984 166.801 79.1484 167.07C78.6797 167.211 78.2227 167.281 77.7773 167.281C76.7461 167.281 75.8379 166.947 75.0527 166.279C74.2676 165.611 73.8223 164.773 73.7168 163.766ZM109.014 166.104C108.193 165.283 107.783 164.275 107.783 163.08V144.746C107.783 143.574 108.188 142.59 108.996 141.793C109.816 140.984 110.807 140.58 111.967 140.58C112.705 140.58 113.391 140.768 114.023 141.143C114.668 141.506 115.172 142.01 115.535 142.654C115.91 143.299 116.098 144.008 116.098 144.781V163.15C116.098 163.701 115.992 164.24 115.781 164.768C115.582 165.283 115.283 165.74 114.885 166.139C114.064 166.924 113.092 167.316 111.967 167.316C110.771 167.316 109.787 166.912 109.014 166.104ZM119.455 165.998C118.611 164.99 118.189 163.883 118.189 162.676V144.781C118.189 143.891 118.424 143.088 118.893 142.373C119.373 141.658 120.006 141.143 120.791 140.826C121.295 140.615 121.799 140.51 122.303 140.51C123.557 140.51 124.746 141.166 125.871 142.479L135.012 153.324V144.781C135.012 143.621 135.428 142.625 136.26 141.793C137.08 140.984 138.053 140.58 139.178 140.58C139.74 140.58 140.273 140.686 140.777 140.896C141.293 141.096 141.732 141.395 142.096 141.793C142.471 142.156 142.77 142.607 142.992 143.146C143.215 143.674 143.326 144.219 143.326 144.781V163.115C143.326 163.291 143.303 163.566 143.256 163.941C143.139 164.586 142.875 165.166 142.465 165.682C142.066 166.186 141.58 166.578 141.006 166.859C140.432 167.141 139.811 167.281 139.143 167.281C138.346 167.281 137.625 167.082 136.98 166.684C136.512 166.367 136.166 166.062 135.943 165.77L126.504 154.186V163.08C126.504 164.287 126.1 165.295 125.291 166.104C124.506 166.889 123.557 167.281 122.443 167.281C121.236 167.281 120.24 166.854 119.455 165.998ZM161.203 159.828C162.445 159.594 163.324 159.119 163.84 158.404H161.678C160.646 158.404 159.773 158.041 159.059 157.314C158.355 156.588 158.004 155.715 158.004 154.695C158.027 154.016 158.197 153.406 158.514 152.867C158.83 152.316 159.264 151.877 159.814 151.549C160.377 151.221 160.986 151.057 161.643 151.057H168.621C171.188 151.057 172.471 152.469 172.471 155.293C172.471 156.113 172.389 156.957 172.225 157.824C172.061 158.914 171.656 160.039 171.012 161.199C170.297 162.477 169.383 163.578 168.27 164.504C167.168 165.418 165.896 166.115 164.455 166.596C163.025 167.076 161.449 167.316 159.727 167.316C158.742 167.316 157.652 167.223 156.457 167.035C154.816 166.754 153.328 166.268 151.992 165.576C150.668 164.873 149.508 163.971 148.512 162.869C147.516 161.768 146.719 160.514 146.121 159.107C145.43 157.443 145.084 155.756 145.084 154.045C145.084 151.795 145.652 149.668 146.789 147.664C147.938 145.648 149.555 143.984 151.641 142.672C153.914 141.254 156.504 140.545 159.41 140.545C159.785 140.545 160.324 140.568 161.027 140.615C162.281 140.721 163.506 140.961 164.701 141.336C165.85 141.711 166.928 142.203 167.936 142.812C169.986 144.16 171.012 145.602 171.012 147.137C171.012 148.051 170.59 148.877 169.746 149.615C169.148 150.143 168.428 150.406 167.584 150.406C166.963 150.406 166.301 150.26 165.598 149.967H165.562L164.051 149.176C163.723 148.988 163.471 148.859 163.295 148.789C161.83 148.109 160.465 147.77 159.199 147.77C158.18 147.77 157.266 147.975 156.457 148.385C155.648 148.783 154.975 149.375 154.436 150.16C153.896 150.945 153.539 151.854 153.363 152.885C153.293 153.213 153.258 153.535 153.258 153.852C153.258 154.262 153.293 154.66 153.363 155.047C153.574 156.09 153.949 156.986 154.488 157.736C155.027 158.475 155.707 159.049 156.527 159.459C157.359 159.857 158.297 160.057 159.34 160.057C159.973 160.057 160.594 159.98 161.203 159.828ZM176.32 161.393C175.793 160.643 175.348 159.852 174.984 159.02C174.633 158.176 174.363 157.332 174.176 156.488C174 155.633 173.912 154.771 173.912 153.904C173.912 153.061 174 152.211 174.176 151.355C174.363 150.5 174.639 149.65 175.002 148.807C175.365 147.951 175.805 147.154 176.32 146.416C177.164 145.186 178.184 144.125 179.379 143.234C180.574 142.344 181.881 141.664 183.299 141.195C184.729 140.715 186.193 140.475 187.693 140.475C188.818 140.475 189.926 140.609 191.016 140.879C192.117 141.148 193.166 141.547 194.162 142.074C195.17 142.59 196.084 143.211 196.904 143.938C197.736 144.664 198.463 145.49 199.084 146.416C200.689 148.736 201.492 151.232 201.492 153.904C201.492 155.229 201.287 156.529 200.877 157.807C200.467 159.072 199.869 160.268 199.084 161.393C198.463 162.295 197.725 163.127 196.869 163.889C196.014 164.639 195.111 165.26 194.162 165.752C193.225 166.244 192.193 166.637 191.068 166.93C189.943 167.211 188.818 167.352 187.693 167.352C186.193 167.352 184.729 167.117 183.299 166.648C181.881 166.18 180.568 165.494 179.361 164.592C178.166 163.689 177.152 162.623 176.32 161.393ZM182.156 153.904C182.156 155.064 182.402 156.119 182.895 157.068C183.398 158.018 184.066 158.756 184.898 159.283C185.742 159.799 186.662 160.057 187.658 160.057C188.01 160.057 188.373 160.021 188.748 159.951C189.416 159.811 190.02 159.564 190.559 159.213C191.098 158.861 191.572 158.416 191.982 157.877C192.404 157.338 192.727 156.74 192.949 156.084C193.172 155.416 193.283 154.701 193.283 153.939C193.283 153.576 193.248 153.189 193.178 152.779C193.002 151.76 192.656 150.881 192.141 150.143C191.637 149.404 190.998 148.824 190.225 148.402C189.451 147.98 188.607 147.77 187.693 147.77C186.674 147.77 185.742 148.033 184.898 148.561C184.055 149.076 183.387 149.809 182.895 150.758C182.402 151.707 182.156 152.756 182.156 153.904Z" fill="#0CF2C9"/>
<defs>
<linearGradient id="paint0_linear" x1="112" y1="-20.5" x2="111.5" y2="223" gradientUnits="userSpaceOnUse">
<stop stop-color="#183940"/>
<stop offset="1" stop-color="#48172F"/>
</linearGradient>
</defs>
</svg>
