<svg width="142" height="90" viewBox="0 0 142 90" fill="none" xmlns="http://www.w3.org/2000/svg">
<path d="M33.663 40.5381C36.2571 40.052 38.0926 39.0677 39.1695 37.5852H34.6541C32.5005 37.5852 30.6772 36.8318 29.1844 35.325C27.716 33.8182 26.9818 32.0076 26.9818 29.8932C27.0307 28.4836 27.3856 27.2198 28.0464 26.1018C28.7071 24.9596 29.6126 24.0482 30.7629 23.3677C31.9376 22.6872 33.2102 22.347 34.5807 22.347H49.1546C54.5142 22.347 57.194 25.2755 57.194 31.1326C57.194 32.8339 57.0227 34.5837 56.6801 36.3822C56.3375 38.6424 55.4931 40.9755 54.1471 43.3815C52.6542 46.0306 50.7453 48.3151 48.4204 50.2351C46.1199 52.1308 43.4645 53.5768 40.4543 54.5733C37.4686 55.5697 34.1769 56.0679 30.5793 56.0679C28.5236 56.0679 26.2476 55.8735 23.7513 55.4846C20.325 54.9014 17.2169 53.8928 14.427 52.4589C11.6615 51.0007 9.23866 49.1293 7.15843 46.8448C5.0782 44.5603 3.41402 41.9598 2.16588 39.0434C0.721961 35.5923 0 32.0926 0 28.5443C0 23.8781 1.18695 19.467 3.56086 15.3111C5.95924 11.131 9.33655 7.67987 13.6928 4.95789C18.4406 2.01718 23.8492 0.546826 29.9186 0.546826C30.7017 0.546826 31.8275 0.595433 33.2959 0.692647C35.9145 0.911377 38.472 1.4096 40.9682 2.1873C43.3666 2.96501 45.6182 3.98576 47.7229 5.24953C52.0057 8.04442 54.1471 11.0337 54.1471 14.2175C54.1471 16.1131 53.2661 17.8265 51.504 19.3576C50.2558 20.4513 48.7507 20.9981 46.9887 20.9981C45.6916 20.9981 44.3088 20.6943 42.8405 20.0868H42.767L39.61 18.4463C38.9247 18.0574 38.3986 17.7901 38.0315 17.6443C34.9723 16.2347 32.1212 15.5299 29.478 15.5299C27.3489 15.5299 25.44 15.9552 23.7513 16.8058C22.0626 17.6321 20.6554 18.8594 19.5297 20.4878C18.4039 22.1161 17.6575 23.9996 17.2904 26.1383C17.1435 26.8188 17.0701 27.4871 17.0701 28.1433C17.0701 28.9939 17.1435 29.8203 17.2904 30.6223C17.7309 32.7853 18.514 34.6445 19.6398 36.1999C20.7656 37.731 22.185 38.9219 23.8981 39.7725C25.6357 40.5988 27.5936 41.012 29.7717 41.012C31.0933 41.012 32.3904 40.854 33.663 40.5381Z" fill="#0CF2C9"/>
<path d="M93.8672 40.5381C96.4614 40.052 98.2969 39.0677 99.3737 37.5852H94.8584C92.7047 37.5852 90.8815 36.8318 89.3886 35.325C87.9202 33.8182 87.186 32.0076 87.186 29.8932C87.235 28.4836 87.5898 27.2198 88.2506 26.1018C88.9114 24.9596 89.8169 24.0482 90.9671 23.3677C92.1418 22.6872 93.4145 22.347 94.785 22.347H109.359C114.718 22.347 117.398 25.2755 117.398 31.1326C117.398 32.8339 117.227 34.5837 116.884 36.3822C116.542 38.6424 115.697 40.9755 114.351 43.3815C112.858 46.0306 110.95 48.3151 108.625 50.2351C106.324 52.1308 103.669 53.5768 100.659 54.5733C97.6728 55.5697 94.3811 56.0679 90.7836 56.0679C88.7278 56.0679 86.4518 55.8735 83.9555 55.4846C80.5293 54.9014 77.4212 53.8928 74.6312 52.4589C71.8657 51.0007 69.4429 49.1293 67.3627 46.8448C65.2824 44.5603 63.6183 41.9598 62.3701 39.0434C60.9262 35.5923 60.2042 32.0926 60.2042 28.5443C60.2042 23.8781 61.3912 19.467 63.7651 15.3111C66.1635 11.131 69.5408 7.67987 73.897 4.95789C78.6448 2.01718 84.0534 0.546826 90.1228 0.546826C90.9059 0.546826 92.0317 0.595433 93.5001 0.692647C96.1187 0.911377 98.6762 1.4096 101.172 2.1873C103.571 2.96501 105.822 3.98576 107.927 5.24953C112.21 8.04442 114.351 11.0337 114.351 14.2175C114.351 16.1131 113.47 17.8265 111.708 19.3576C110.46 20.4513 108.955 20.9981 107.193 20.9981C105.896 20.9981 104.513 20.6943 103.045 20.0868H102.971L99.8142 18.4463C99.129 18.0574 98.6028 17.7901 98.2357 17.6443C95.1765 16.2347 92.3254 15.5299 89.6823 15.5299C87.5531 15.5299 85.6442 15.9552 83.9555 16.8058C82.2669 17.6321 80.8597 18.8594 79.7339 20.4878C78.6081 22.1161 77.8617 23.9996 77.4946 26.1383C77.3478 26.8188 77.2743 27.4871 77.2743 28.1433C77.2743 28.9939 77.3478 29.8203 77.4946 30.6223C77.9351 32.7853 78.7183 34.6445 79.844 36.1999C80.9698 37.731 82.3892 38.9219 84.1024 39.7725C85.84 40.5988 87.7978 41.012 89.976 41.012C91.2975 41.012 92.5946 40.854 93.8672 40.5381Z" fill="#0CF2C9"/>
<path d="M130.944 56.8335C129.256 56.8335 127.714 56.4203 126.319 55.594C124.948 54.792 123.859 53.7105 123.052 52.3495C122.244 50.9642 121.816 49.4209 121.767 47.7197C121.767 46.0914 122.171 44.5724 122.978 43.1628C123.786 41.7289 124.875 40.5988 126.245 39.7725C127.64 38.9462 129.182 38.533 130.871 38.533C133.465 38.533 135.643 39.4079 137.405 41.1578C138.286 41.9841 138.959 42.9684 139.424 44.1106C139.889 45.2529 140.122 46.4316 140.122 47.6468C140.122 50.2229 139.216 52.4103 137.405 54.2087C135.643 55.9585 133.489 56.8335 130.944 56.8335ZM130.944 36.9655C129.378 36.9655 127.946 36.5887 126.649 35.8353C125.377 35.0576 124.361 34.0247 123.602 32.7367C122.868 31.4486 122.501 30.0268 122.501 28.4714V8.38467C122.501 6.05154 123.333 4.05867 124.997 2.40604C126.612 0.802012 128.57 0 130.871 0C133.147 0 135.117 0.826315 136.781 2.47895C137.54 3.23235 138.127 4.13158 138.543 5.17662C138.984 6.22167 139.204 7.31532 139.204 8.45758V28.5443C139.204 30.0754 138.837 31.485 138.103 32.7731C137.368 34.0369 136.377 35.0455 135.129 35.7989C133.881 36.5523 132.486 36.9412 130.944 36.9655Z" fill="#0CF2C9"/>
<path d="M12.8729 84.0533C13.8457 83.871 14.5341 83.5019 14.9379 82.9459H13.2446C12.437 82.9459 11.7533 82.6634 11.1935 82.0984C10.6428 81.5333 10.3675 80.8543 10.3675 80.0614C10.3858 79.5328 10.5189 79.0589 10.7667 78.6397C11.0145 78.2113 11.3541 77.8696 11.7854 77.6144C12.2259 77.3592 12.7032 77.2316 13.2171 77.2316H18.6823C20.6921 77.2316 21.6971 78.3298 21.6971 80.5262C21.6971 81.1642 21.6328 81.8204 21.5044 82.4948C21.3759 83.3424 21.0592 84.2173 20.5545 85.1196C19.9947 86.113 19.2788 86.9697 18.407 87.6897C17.5443 88.4005 16.5485 88.9428 15.4197 89.3165C14.3 89.6901 13.0657 89.877 11.7166 89.877C10.9457 89.877 10.0922 89.8041 9.15606 89.6582C7.87121 89.4395 6.70567 89.0613 5.65944 88.5236C4.62239 87.9767 3.71382 87.275 2.93373 86.4183C2.15365 85.5616 1.52958 84.5864 1.06153 83.4928C0.520057 82.1986 0.249321 80.8862 0.249321 79.5556C0.249321 77.8058 0.694429 76.1516 1.58464 74.5932C2.48404 73.0256 3.75053 71.7315 5.38412 70.7107C7.16455 69.6079 9.19277 69.0566 11.4688 69.0566C11.7625 69.0566 12.1846 69.0748 12.7353 69.1112C13.7173 69.1933 14.6763 69.3801 15.6124 69.6717C16.5118 69.9634 17.3561 70.3462 18.1454 70.8201C19.7515 71.8682 20.5545 72.9892 20.5545 74.1831C20.5545 74.8939 20.2241 75.5364 19.5633 76.1106C19.0953 76.5207 18.5308 76.7258 17.8701 76.7258C17.3837 76.7258 16.8651 76.6119 16.3145 76.384H16.287L15.1031 75.7689C14.8461 75.623 14.6488 75.5228 14.5111 75.4681C13.3639 74.9395 12.2948 74.6752 11.3036 74.6752C10.5051 74.6752 9.78931 74.8347 9.15606 75.1537C8.52281 75.4635 7.99511 75.9238 7.57295 76.5344C7.15078 77.145 6.87087 77.8513 6.73321 78.6534C6.67814 78.9085 6.65061 79.1592 6.65061 79.4052C6.65061 79.7242 6.67814 80.0341 6.73321 80.3348C6.8984 81.146 7.19208 81.8432 7.61424 82.4265C8.03641 83.0006 8.5687 83.4472 9.21113 83.7662C9.86273 84.076 10.5969 84.231 11.4137 84.231C11.9093 84.231 12.3957 84.1717 12.8729 84.0533Z" fill="#0CF2C9"/>
<path d="M23.7895 89.6582C23.1563 89.3848 22.6653 89.0066 22.3166 88.5236C21.977 88.0314 21.8072 87.4664 21.8072 86.8284C21.8072 86.3545 21.9311 85.7758 22.1789 85.0922L27.0246 72.6656C27.4743 71.5264 28.1259 70.6515 28.9794 70.0408C29.8421 69.4211 30.8241 69.1112 31.9254 69.1112C33.0358 69.1112 34.0178 69.4211 34.8713 70.0408C35.734 70.6515 36.3902 71.5264 36.8399 72.6656L41.6856 85.0922C41.9334 85.8122 42.0573 86.3909 42.0573 86.8284C42.0573 87.4664 41.8829 88.0314 41.5342 88.5236C41.1946 89.0066 40.7082 89.3848 40.075 89.6582C39.6345 89.8496 39.1848 89.9453 38.7259 89.9453C38.0743 89.9453 37.4686 89.7403 36.9087 89.3301C36.3581 88.92 35.9497 88.3504 35.6835 87.6213L35.3669 86.6917H28.5251L28.181 87.6213C27.9332 88.3322 27.5294 88.8972 26.9695 89.3165C26.4189 89.7357 25.8086 89.9453 25.1386 89.9453C24.6798 89.9453 24.2301 89.8496 23.7895 89.6582ZM30.4111 81.0594H33.4534L31.9254 75.6321L30.4111 81.0594Z" fill="#0CF2C9"/>
<path d="M41.9334 87.1155C41.9334 86.6234 41.9426 86.2679 41.9609 86.0492L44.2737 72.6109C44.393 71.8271 44.6775 71.1482 45.1272 70.574C45.586 69.9907 46.155 69.576 46.8342 69.33C47.4215 69.1112 47.9951 69.0019 48.555 69.0019C49.5094 69.0019 50.3583 69.2844 51.1017 69.8495C51.8543 70.4054 52.359 71.1482 52.616 72.0778L54.6947 79.1592L56.7872 72.0778C57.0717 71.1391 57.5856 70.3917 58.329 69.8358C59.0815 69.2798 59.9304 69.0019 60.8757 69.0019C61.4264 69.0019 62 69.1112 62.5965 69.33C63.2848 69.576 63.8492 69.9862 64.2897 70.5603C64.7303 71.1345 65.0193 71.818 65.157 72.6109L67.4422 86.0492C67.4789 86.2679 67.4973 86.6234 67.4973 87.1155C67.4147 87.8993 67.0659 88.5509 66.451 89.0704C65.8453 89.5899 65.1341 89.8496 64.3173 89.8496C63.9593 89.8496 63.6014 89.7949 63.2435 89.6856C62.647 89.476 62.156 89.1387 61.7705 88.674C61.3851 88.2091 61.1602 87.6805 61.096 87.0882L60.1048 78.9678L57.5168 87.4709C57.3149 88.1636 57.0717 88.6876 56.7872 89.0431C56.5118 89.3894 56.1631 89.6309 55.7409 89.7676C55.2912 89.9225 54.9149 90 54.6121 90C53.988 90 53.442 89.7858 52.9739 89.3575C52.5059 88.9291 52.1525 88.3003 51.9139 87.4709L49.2846 78.9678L48.3209 87.0882C48.2567 87.6805 48.0318 88.2091 47.6464 88.674C47.2609 89.1387 46.7745 89.476 46.1872 89.6856C45.8201 89.7949 45.4621 89.8496 45.1134 89.8496C44.3058 89.8496 43.5945 89.5899 42.9796 89.0704C42.3647 88.5509 42.016 87.8993 41.9334 87.1155Z" fill="#0CF2C9"/>
<path d="M69.576 88.9337C68.9335 88.2957 68.6123 87.5119 68.6123 86.5823V72.3238C68.6123 71.4125 68.9289 70.6469 69.5622 70.0272C70.2046 69.3983 70.9801 69.0839 71.8887 69.0839C72.4669 69.0839 73.0037 69.2297 73.4993 69.5214C74.0041 69.8039 74.3987 70.1958 74.6832 70.697C74.9769 71.1983 75.1237 71.7497 75.1237 72.3512V86.637C75.1237 87.0654 75.0411 87.4846 74.876 87.8947C74.7199 88.2957 74.4859 88.6512 74.1739 88.961C73.5315 89.5717 72.7697 89.877 71.8887 89.877C70.9526 89.877 70.1817 89.5625 69.576 88.9337Z" fill="#0CF2C9"/>
<path d="M77.7531 88.8517C77.0923 88.0679 76.7619 87.2066 76.7619 86.2679V72.3512C76.7619 71.6585 76.9455 71.0342 77.3126 70.4783C77.6889 69.9224 78.1844 69.5214 78.7993 69.2753C79.194 69.1112 79.5886 69.0292 79.9832 69.0292C80.9652 69.0292 81.8967 69.5396 82.7778 70.5603L89.9362 78.9951V72.3512C89.9362 71.4489 90.262 70.6743 90.9136 70.0272C91.556 69.3983 92.3177 69.0839 93.1988 69.0839C93.6393 69.0839 94.0569 69.1659 94.4515 69.33C94.8553 69.4849 95.1995 69.7173 95.484 70.0272C95.7776 70.3097 96.0117 70.6606 96.1861 71.0798C96.3604 71.4899 96.4476 71.9137 96.4476 72.3512V86.6097C96.4476 86.7464 96.4293 86.9606 96.3925 87.2522C96.3008 87.7535 96.0943 88.2046 95.7731 88.6056C95.461 88.9975 95.0802 89.3028 94.6305 89.5215C94.1808 89.7403 93.6944 89.8496 93.1712 89.8496C92.5472 89.8496 91.9828 89.6947 91.478 89.3848C91.1109 89.1387 90.8402 88.9018 90.6658 88.674L83.2733 79.665V86.5823C83.2733 87.5211 82.9567 88.3048 82.3235 88.9337C81.7086 89.5443 80.9652 89.8496 80.0933 89.8496C79.1481 89.8496 78.368 89.517 77.7531 88.8517Z" fill="#0CF2C9"/>
<path d="M110.448 84.0533C111.421 83.871 112.109 83.5019 112.513 82.9459H110.82C110.012 82.9459 109.328 82.6634 108.768 82.0984C108.218 81.5333 107.942 80.8543 107.942 80.0614C107.961 79.5328 108.094 79.0589 108.342 78.6397C108.589 78.2113 108.929 77.8696 109.36 77.6144C109.801 77.3592 110.278 77.2316 110.792 77.2316H116.257C118.267 77.2316 119.272 78.3298 119.272 80.5262C119.272 81.1642 119.208 81.8204 119.079 82.4948C118.951 83.3424 118.634 84.2173 118.129 85.1196C117.57 86.113 116.854 86.9697 115.982 87.6897C115.119 88.4005 114.123 88.9428 112.995 89.3165C111.875 89.6901 110.641 89.877 109.291 89.877C108.521 89.877 107.667 89.8041 106.731 89.6582C105.446 89.4395 104.281 89.0613 103.234 88.5236C102.197 87.9767 101.289 87.275 100.509 86.4183C99.7286 85.5616 99.1045 84.5864 98.6364 83.4928C98.095 82.1986 97.8242 80.8862 97.8242 79.5556C97.8242 77.8058 98.2693 76.1516 99.1596 74.5932C100.059 73.0256 101.325 71.7315 102.959 70.7107C104.739 69.6079 106.768 69.0566 109.044 69.0566C109.337 69.0566 109.76 69.0748 110.31 69.1112C111.292 69.1933 112.251 69.3801 113.187 69.6717C114.087 69.9634 114.931 70.3462 115.72 70.8201C117.326 71.8682 118.129 72.9892 118.129 74.1831C118.129 74.8939 117.799 75.5364 117.138 76.1106C116.67 76.5207 116.106 76.7258 115.445 76.7258C114.959 76.7258 114.44 76.6119 113.889 76.384H113.862L112.678 75.7689C112.421 75.623 112.224 75.5228 112.086 75.4681C110.939 74.9395 109.87 74.6752 108.878 74.6752C108.08 74.6752 107.364 74.8347 106.731 75.1537C106.098 75.4635 105.57 75.9238 105.148 76.5344C104.726 77.145 104.446 77.8513 104.308 78.6534C104.253 78.9085 104.226 79.1592 104.226 79.4052C104.226 79.7242 104.253 80.0341 104.308 80.3348C104.473 81.146 104.767 81.8432 105.189 82.4265C105.611 83.0006 106.144 83.4472 106.786 83.7662C107.438 84.076 108.172 84.231 108.989 84.231C109.484 84.231 109.971 84.1717 110.448 84.0533Z" fill="#0CF2C9"/>
<path d="M122.287 85.27C121.874 84.6867 121.525 84.0715 121.241 83.4244C120.965 82.7682 120.754 82.112 120.607 81.4558C120.47 80.7905 120.401 80.1207 120.401 79.4463C120.401 78.7901 120.47 78.1293 120.607 77.464C120.754 76.7987 120.97 76.138 121.254 75.4818C121.539 74.8165 121.883 74.1967 122.287 73.6226C122.948 72.6656 123.746 71.8408 124.682 71.1482C125.618 70.4555 126.641 69.9269 127.752 69.5624C128.872 69.1887 130.019 69.0019 131.194 69.0019C132.075 69.0019 132.942 69.1067 133.795 69.3163C134.658 69.5259 135.479 69.8358 136.259 70.2459C137.049 70.6469 137.765 71.1299 138.407 71.695C139.059 72.26 139.628 72.9026 140.114 73.6226C141.371 75.4271 142 77.3683 142 79.4463C142 80.4761 141.839 81.4877 141.518 82.4811C141.197 83.4654 140.729 84.395 140.114 85.27C139.628 85.9717 139.049 86.6188 138.379 87.2112C137.71 87.7945 137.003 88.2775 136.259 88.6603C135.525 89.0431 134.718 89.3484 133.837 89.5762C132.956 89.7949 132.075 89.9043 131.194 89.9043C130.019 89.9043 128.872 89.722 127.752 89.3575C126.641 88.9929 125.614 88.4598 124.668 87.758C123.732 87.0563 122.938 86.2269 122.287 85.27ZM126.857 79.4463C126.857 80.3485 127.05 81.1688 127.435 81.907C127.83 82.6452 128.353 83.2194 129.005 83.6295C129.665 84.0305 130.386 84.231 131.166 84.231C131.441 84.231 131.726 84.2036 132.02 84.149C132.543 84.0396 133.015 83.8482 133.437 83.5748C133.86 83.3014 134.231 82.9551 134.552 82.5358C134.883 82.1166 135.135 81.6518 135.31 81.1414C135.484 80.6219 135.571 80.066 135.571 79.4736C135.571 79.1911 135.544 78.8903 135.489 78.5713C135.351 77.7784 135.08 77.0949 134.676 76.5207C134.282 75.9466 133.782 75.4954 133.176 75.1673C132.57 74.8392 131.909 74.6752 131.194 74.6752C130.395 74.6752 129.665 74.8803 129.005 75.2904C128.344 75.6914 127.821 76.261 127.435 76.9992C127.05 77.7374 126.857 78.5531 126.857 79.4463Z" fill="#0CF2C9"/>
</svg>
